<svg version="1.2" xmlns="http://www.w3.org/2000/svg" xmlns:xlink="http://www.w3.org/1999/xlink" overflow="visible" preserveAspectRatio="none" viewBox="0 0 24 24" width="36" height="36"><g><path xmlns:default="http://www.w3.org/2000/svg" id="user-circle" d="M15.74,19.07c-2.32,1.21-5.09,1.21-7.41,0c-1.12-0.59-2.09-1.43-2.82-2.47c0.11-0.95,0.42-1.86,0.91-2.68  c0.41-0.68,1.12-1.14,1.91-1.23c1.86,2.04,5.02,2.19,7.06,0.33c0.11-0.1,0.22-0.21,0.33-0.33c0.8,0.09,1.5,0.55,1.92,1.23  c0.49,0.82,0.8,1.73,0.91,2.68C17.82,17.64,16.86,18.49,15.74,19.07z M14.86,12.15c-0.74,0.76-1.77,1.19-2.83,1.17  c-2.21,0-4-1.79-4-4s1.79-4,4-4s4,1.79,4,4C16.05,10.39,15.63,11.41,14.86,12.15z M20.62,8.37c-0.93-2.27-2.73-4.07-5-5  c-2.32-0.99-4.93-0.99-7.25,0c-2.27,0.93-4.07,2.73-5,5c-0.99,2.32-0.99,4.93,0,7.25c0.93,2.27,2.73,4.07,5,5  c2.32,0.99,4.94,0.99,7.26,0c1.12-0.46,2.14-1.14,3-2c0.85-0.86,1.53-1.88,2-3C21.62,13.31,21.61,10.69,20.62,8.37z" style="fill: rgb(255, 255, 255);" vector-effect="non-scaling-stroke"/></g></svg>